<svg version="1.1" xmlns="http://www.w3.org/2000/svg" viewBox="0 0 1256 371" width="1256" height="371">
  <!-- svg-source:excalidraw -->
  
  <defs>
    <style>
      @font-face {
        font-family: "Virgil";
        src: url("https://excalidraw.com/Virgil.woff2");
      }
      @font-face {
        font-family: "Cascadia";
        src: url("https://excalidraw.com/Cascadia.woff2");
      }
    </style>
  </defs>
  <g stroke-linecap="round" transform="translate(10 10) rotate(0 115.5 175.5)"><path d="M0 0 C0 0, 0 0, 0 0 M0 0 C0 0, 0 0, 0 0 M0.38 7.07 C0.9 3.68, 2.87 2.12, 4.36 1.02 M-0.43 6.76 C1.95 3.64, 4.09 1.84, 4.83 0.23 M-0.84 11.99 C5.2 7.52, 6.66 2.65, 11.18 -1.55 M-0.04 11.8 C3.85 7.74, 7.27 2.48, 10.09 -0.44 M-2.03 19.9 C7.82 9.51, 14.3 5.76, 14.92 -1.47 M-0.37 18.09 C4.04 11.63, 10.51 7.65, 15.46 -0.53 M0.12 24.58 C8.25 14.05, 17.73 5.69, 21.78 -1.06 M1.01 25.03 C7.47 14.86, 15.98 7.7, 20.37 0.92 M0.39 29.76 C11.46 20.34, 19.49 7.2, 25.53 0.12 M-0.47 29.95 C6.65 23.69, 13.75 15.42, 27.07 -0.33 M0.96 38.65 C10.39 26.3, 18.57 15.49, 30.33 -2.05 M0.15 36.25 C13.26 22.12, 24.84 7.34, 31.2 0.25 M0.38 44.07 C16.53 25.81, 31.19 8.11, 38.75 -0.78 M0.17 43.22 C8.8 31.46, 19.54 21.11, 36.31 0.37 M0.83 48.47 C9.22 39.81, 16.46 27.9, 44.3 -0.6 M-0.77 48.9 C12.93 33.47, 26.88 16.84, 42.02 0.6 M-0.11 54.51 C13.86 39.47, 29.23 25.27, 47.28 -1.48 M0.8 54.38 C11.93 41.08, 25.46 27.11, 46.7 0.9 M-1.57 60.86 C11.13 47.99, 24.26 36.81, 51.26 -1.11 M0.81 60.41 C16.95 43.1, 32.65 24.04, 53.58 0.24 M0.45 68.79 C19.75 44.39, 40.32 20.52, 59.03 1 M-0.82 67.75 C15.53 49.27, 29.88 31.7, 57.43 -0.8 M0.27 74.18 C23.49 45.36, 48.25 15.57, 64.99 1.27 M-0.25 72.01 C12.2 58.35, 24.7 43.84, 64.72 -0.46 M-0.23 77.66 C16.12 58.48, 34.49 37.56, 67.14 -0.08 M-0.81 79.51 C24.12 51.18, 47.81 23.15, 68.29 0.83 M2.14 85.07 C20.9 59.67, 44.82 33.65, 75.48 -1.29 M-0.46 84.58 C28.98 52.2, 58.16 19.15, 73.46 -0.01 M1.84 93.39 C25.72 60.52, 54.94 26.64, 79.97 0.82 M-0.15 91.21 C17.83 71.07, 32.56 52.09, 78.73 -0.06 M-1.64 99.19 C30.68 60.68, 62.3 22.55, 86.95 0.63 M0.67 98.35 C30.6 63.16, 62.75 27.23, 85.93 -0.83 M1.47 104.78 C29.05 70.86, 60.3 36.48, 91.1 -0.47 M1 103.76 C24.67 77.56, 45.84 51.39, 90.85 0.32 M-1.57 110.24 C28.59 77.11, 57.99 44.69, 95.84 -0.25 M0.22 108.9 C31.9 75.02, 63.02 39.11, 95.43 -0.21 M1.74 115.94 C33.97 77.75, 67.48 39.65, 101.31 0.15 M-0.39 115.18 C29.3 80.54, 59.5 45.98, 100.39 0.34 M1.13 122.44 C28.79 88.82, 53.78 57.24, 104.79 -1.94 M0.96 122.66 C43.19 74.15, 84.51 26.14, 105.39 -1.34 M-0.73 128.98 C37.32 87.96, 72.24 48.25, 112.63 1.07 M0.14 128.33 C30.13 93.61, 61.49 57.42, 111.7 -0.01 M-0.92 133.56 C28.51 101.19, 57.2 70.52, 116.03 1.59 M0.96 134.95 C41.39 87.05, 84.57 37.88, 115.7 0.46 M0.87 139.04 C28.58 107.33, 59.96 71.88, 122.28 0.94 M0.16 140.94 C40.93 93.76, 80.78 47.71, 122.81 -0.12 M0.16 145.64 C43.08 93.16, 89.62 42.41, 127.96 -0.61 M-0.1 145.68 C27.09 116.02, 52.52 87.4, 126.41 -0.3 M1.44 152.77 C42.05 106.17, 80.08 62.04, 132.7 0.65 M-0.53 153.05 C39.43 103.53, 81.82 57.32, 132.38 0.19 M0.65 159.65 C43.47 109.9, 88.34 56.33, 137.27 1.86 M-0.49 159.09 C44.85 107.36, 90.07 54.36, 136.79 0.28 M1.23 163.63 C39.58 120.83, 79.94 72.5, 141.81 1.42 M-0.49 165.2 C40.53 118.94, 80.06 73.9, 142.73 -0.18 M-1.28 170.98 C56.44 104.6, 112.04 39.58, 147.48 0.65 M-0.89 170.04 C47.78 115.09, 96.01 59.18, 148.48 -0.43 M-1.31 177.45 C58.5 113.39, 113.46 47.65, 152.15 -0.68 M-0.07 176.14 C62.15 104.79, 124.21 34.98, 154.51 -0.78 M-1.42 183 C63.58 108.23, 126.97 36.85, 158.24 1.49 M0.32 182.58 C36.49 142.39, 70.82 103.25, 159.03 -0.32 M-1.4 189.61 C38.09 145.82, 74.74 105.33, 165.33 0.97 M-0.92 189.73 C44.34 139.28, 88.42 89.24, 164.79 -0.75 M0.65 194.97 C56.03 132.36, 109.35 68.62, 167.86 0.72 M-0.02 195.24 C37.91 149.62, 76.36 104.29, 169.56 0.92 M-0.72 201.27 C45.77 152.31, 87.95 102.9, 174.22 1.34 M0.65 200.97 C65.73 126.39, 131.18 49.54, 174.67 0.36 M0.03 208.02 C63.06 138.66, 124.71 68.24, 181.25 0.79 M0.5 206.42 C37.26 163.28, 74.89 120.17, 180.39 -0.26 M0.68 211.87 C57.42 145.92, 118.11 79.17, 184.23 -0.71 M-0.68 212.95 C43.59 164.15, 85.54 115.77, 186.37 0.36 M0.18 221.09 C65.08 142.62, 131.01 66.04, 189.34 -1.18 M0.04 220.44 C73.86 133.64, 147.27 48.79, 190.4 0.65 M-0.93 224.2 C51.13 164.65, 105.03 105, 195.08 -1.51 M-0.03 224.87 C47.52 168.75, 95.68 113.9, 196.4 -0.02 M1.12 232.75 C50.62 175.57, 102.09 116.54, 201.79 0.45 M-0.64 231.38 C50.38 173.74, 99.03 116.92, 200.91 -0.34 M-0.11 237.3 C41.92 189.4, 83.57 141.54, 205.97 -0.55 M0.53 236.82 C53.92 177.6, 106.48 116.4, 207.16 0.31 M0.5 244.04 C54.34 179.52, 113.03 113.99, 211.77 0.29 M-0.14 243.57 C50.91 189.53, 99.13 133.18, 211.75 0.4 M0.51 249.23 C85.91 151.4, 173 53.23, 217.02 -1.28 M0.04 249.69 C86.04 153.21, 171.43 55.54, 217.04 -0.7 M0.39 256.7 C53.07 194.13, 108.22 132.11, 221.6 1.28 M-0.29 255.79 C55.26 192.61, 111.89 128.72, 222.19 0.01 M0.67 260.97 C85.53 164.67, 171.19 67.48, 227.83 -1.24 M0.28 262.83 C47.54 207.25, 94.9 151.91, 228.39 -0.49 M-0.53 267.29 C75.23 181.42, 150.33 95.98, 231.46 -0.23 M-0.28 267.41 C88.57 166.89, 175.92 66.33, 232.34 0.72 M-0.24 273.66 C53.53 213.54, 106.6 153.03, 232.28 8.16 M-0.18 273.99 C83.21 178.2, 167.92 80.15, 232 6.64 M-0.83 279.94 C63.5 206.15, 126.89 130.92, 232.38 12.77 M0.29 280.88 C76.81 193.38, 153.44 104.98, 232.49 13.36 M0.43 287.31 C75.8 198.36, 151.48 113.18, 232.89 20.07 M-0.07 286.16 C78.93 196.92, 155.95 107.13, 232.91 18.92 M-0.17 294.01 C87.72 190.75, 176.83 92.55, 232.8 26.08 M-0.2 292.89 C49.15 240.1, 95.81 184.58, 232.78 25.94 M-0.96 297.64 C90.84 197.41, 178.63 95.7, 231.74 30.2 M0.64 298.45 C68.68 219.97, 137.54 141.14, 232.7 31.52 M0.6 304.93 C75.08 219.33, 148.29 133.68, 232 38.65 M0.18 304.76 C80.84 209.26, 163.49 116.57, 232.26 38.22 M-0.86 310.93 C89.23 207.6, 178.62 105.2, 230.94 44.83 M-0.48 311.48 C58.81 244.28, 116.01 177.45, 231.99 43.99 M0.77 317.83 C71.91 235.17, 144.04 154.04, 231.39 49.53 M-0.08 317.39 C66.33 241.15, 131.92 165.97, 232 49.29 M-0.02 324.29 C69.92 245.77, 137.54 164.89, 232.76 56.59 M0.05 323.65 C67.49 243.52, 135.81 163.93, 232.5 55.93 M0.45 329.01 C83.46 230.9, 170.35 131.16, 232.48 62.42 M0.53 328.91 C86.08 232.04, 171.21 133.09, 232.53 61.5 M-1.03 334.08 C72.96 251.02, 147.1 164.5, 231.87 68.27 M0.6 335.07 C80.48 243.4, 160.88 150.01, 232.44 68.34 M-1.45 340.86 C51.29 279.97, 104.05 219.72, 232.43 74.89 M0.02 341.13 C79.31 248.57, 158.87 158.36, 232.53 74.18 M0.75 347 C56 285.21, 110.87 222.01, 232.11 80.8 M0.3 347.72 C55.32 282.58, 111.08 219.61, 232.4 79.9 M0.65 353.48 C58.65 290.21, 114.29 223.86, 233.08 86.96 M1.39 351.84 C94.01 245.26, 186.14 138.87, 232.08 86.39 M6.37 351.46 C73.35 275.74, 140.78 198.56, 231.62 92.73 M6.86 351.6 C97.71 247.42, 186.89 143.18, 232.73 92.25 M11.24 351.5 C73.39 282.4, 132.92 212.7, 233.16 99.14 M12.02 352.71 C78.6 278.43, 143.53 203.07, 231.94 98.23 M16.81 352.47 C81.04 279.91, 144.42 205.94, 231.32 104.77 M17.63 351.21 C99.53 255.82, 182.41 161.47, 232.26 104.99 M21.8 352.99 C107.66 257.13, 191.34 159.29, 232.07 110.67 M21.94 352.65 C74.8 291.99, 126.97 231.59, 233.13 111.14 M26.09 351.36 C93.07 277.66, 158.01 204.19, 230.93 118.4 M27.37 352.87 C97.42 273.06, 167.88 192.39, 232.86 117.11 M32.49 352.31 C74.62 306.41, 114.83 258.36, 233.64 121.59 M32.88 351.61 C80.34 299.23, 126.77 246.39, 232.52 122.49 M38.49 351.89 C112.12 263.63, 189.89 175.33, 231.77 127.64 M38.25 351.9 C105.56 273.09, 175.17 193.11, 232.06 129.7 M44.44 350.67 C101.42 286.51, 157.46 223.11, 232.76 135.21 M44.33 352.29 C99.32 288.99, 154.36 225.45, 232.77 135.38 M47.72 351.12 C90.66 305.07, 130.37 259.52, 232.51 140.35 M48.39 352.42 C105.11 290.52, 160.58 226.87, 232.07 140.49 M55.16 352.85 C91.65 309.77, 129.34 267.02, 233.6 147.71 M53.84 351.99 C93.34 309.61, 131.73 265.57, 232.86 147.93 M58.62 352.18 C106.38 297.79, 152.39 246.59, 232.53 154.62 M59.7 351.99 C120.62 281.29, 184.88 208.41, 232.79 152.96 M66.04 353.19 C106.81 301.47, 149.03 251.3, 232.46 159.8 M65.59 352.19 C108.95 301.44, 155.04 249.2, 232.01 159.78 M70.35 351.5 C114.84 301.94, 156.11 256.12, 233.14 165.98 M70.36 352.06 C128.61 286.86, 187.33 218.99, 231.5 165.77 M74.7 352.17 C119.79 300.51, 166.63 247.82, 231.11 172.54 M75.71 351.69 C118.49 301.44, 161.52 253.54, 231.85 171.39 M80.41 352.86 C124.64 301.75, 169.11 253.57, 232.12 179.05 M80.09 352.64 C139.85 284.77, 198.79 216.54, 232.78 178.07 M86.36 352.28 C142.78 290.07, 197.11 225.05, 231.74 183.05 M85.5 352.29 C132.13 299.49, 176.3 246.71, 231.79 184.26 M89.67 352.92 C135.22 302, 176.98 254.62, 231.16 191.32 M91.37 352.96 C148.22 290.09, 202.37 227.42, 232.38 190.16 M95.58 353.09 C138.51 306.76, 178.64 261.98, 231.03 197.09 M96.15 351.21 C127.37 319.03, 157.26 283.93, 232.4 195.6 M101.04 352.74 C131.74 317.26, 162.88 279.92, 234.16 201.03 M101.64 352.29 C153.36 294.28, 204.54 235.76, 232.18 203.06 M108.4 352.52 C136.4 320.48, 165.35 288.44, 231.04 207.01 M107.74 352.32 C145.31 306.13, 185.1 260.61, 231.89 208.24 M110.81 352.65 C143.41 313.44, 176.09 274.94, 232.32 215.13 M112.97 352.66 C140.56 317.97, 168.92 285.08, 231.58 215.14 M119.3 352.11 C152.06 316.12, 182.62 280.25, 230.57 219.66 M118.09 350.93 C145.8 319.72, 173.83 286.52, 231.98 220.43 M124.56 350.57 C159.57 309.89, 196.89 264.76, 231.34 225.11 M123.7 352.6 C154.94 315.22, 186.83 278.93, 232.47 226.19 M127.33 352.21 C165.77 310.65, 202.58 267.8, 232.94 232.83 M129.38 351.53 C164.88 309.72, 201.94 265.6, 232.52 232.26 M132.38 351.57 C162.33 318.67, 187.91 287.17, 230.38 240.82 M133.31 351.61 C163.27 316.83, 195.15 280.81, 232.43 238.84 M138.91 353.29 C166.48 320.58, 198.23 285.35, 231.15 246.28 M139.51 351.31 C170.71 316.35, 200.19 283.07, 232.77 244.81 M142.53 354.02 C165.58 327.85, 188.59 300.92, 230.45 249.66 M143.42 351.31 C178.85 312.18, 214.06 272.42, 232.34 250.59 M149.01 350.88 C180.72 315.87, 211.22 279.24, 232.38 256.77 M148.41 351.83 C171.76 324.85, 195.22 297.74, 231.11 257.99 M155.52 351.58 C178.26 325.37, 200.54 300.25, 231.76 263.29 M154.76 352.45 C172.95 332.12, 189.78 311.88, 232.71 263.54 M161.81 350.5 C183.14 324.94, 205.75 298.82, 232.06 268.62 M159.57 353 C185.47 323.66, 211.91 291.95, 232.09 270.08 M166.05 351.18 C178.66 337.66, 194.04 321.18, 231.13 276.41 M166.25 351.85 C192.04 323.4, 216.93 292.95, 232.03 276.14 M168.73 354.23 C191.11 331.24, 210.13 309.61, 230.5 280.65 M171.19 352.58 C189.7 328.88, 210.4 306.53, 232.06 281.72 M177.07 351.03 C193.36 333.42, 207.48 316.96, 230.54 289.74 M175.92 351.48 C194.35 332.23, 211.83 310.67, 232.42 287.21 M181.05 351.67 C191.84 338.85, 205.4 322.2, 234.24 293 M181.75 352.22 C195.97 333.8, 211.94 317.84, 231.52 293.67 M185.73 350.63 C202.56 336.23, 214.21 319.13, 231.2 300.54 M185.94 351.4 C200.48 336, 216.28 318.25, 232.64 299.44 M191.29 350.71 C201.2 344.57, 207.51 331.66, 233.36 305.81 M192.36 353.16 C202.9 339.58, 213.09 327.6, 231.43 306.52 M197.41 352.75 C207.49 340.35, 215.11 334, 234.24 313.62 M197.63 352.77 C208.67 338.86, 222.27 325.22, 231.79 311.36 M203.19 351.52 C211.11 345.63, 215 335.91, 230.15 318.26 M201.8 353.24 C215.23 338.38, 225.68 324.57, 232.87 318.74 M207.68 353.46 C215 343.83, 222.82 335.54, 233.98 324.03 M208.46 352.88 C212.83 344.66, 219.55 338.6, 231.56 323.11 M213.7 352.54 C220.61 343.4, 225.69 337.02, 233.13 331.07 M213.46 351.92 C219.02 346.62, 225.17 340.01, 232.11 330.17 M220.37 352.08 C223.48 347.4, 224.07 344.64, 231.3 335.9 M219.01 352.11 C221.54 347.74, 226.05 344.57, 232.67 336.21 M223.27 352.41 C227.45 349.56, 229.63 346.56, 233.23 341.81 M224.19 351.61 C226.98 348.84, 230 345.46, 232.25 342.14 M229.46 352.12 C229.94 351.29, 230.76 350.09, 231.72 348.92 M229.57 351.66 C230.08 350.81, 231.26 349.71, 232.15 348.96" stroke="#228be6" stroke-width="0.5" fill="none"></path><path d="M0.37 0.69 C62.32 2.41, 125.72 2.69, 232.34 0.29 M0.02 -0.3 C63.29 1.42, 126.48 2.48, 231.64 0.25 M229.81 0.69 C232.22 84.94, 232.2 167.34, 229.86 352.03 M231.14 -0.22 C233.04 96.37, 233.23 192.08, 231.64 351.12 M230.26 352 C159.48 354.3, 92.02 353.89, -0.84 352.58 M231.76 351.47 C165.46 350.54, 97.99 350.99, 0.32 350.17 M-0.39 351.54 C1.88 262.11, 2.12 172.36, 0.28 -1.25 M-0.63 350.97 C1.34 274.08, 1.15 198.16, 0.55 -0.09" stroke="#000000" stroke-width="1" fill="none"></path></g><g stroke-linecap="round" transform="translate(956 129) rotate(0 145 67)"><path d="M0 0 C0 0, 0 0, 0 0 M0 0 C0 0, 0 0, 0 0 M-0.54 5.68 C0.96 5.05, 1.59 3.66, 4.71 -0.4 M-0.33 6.06 C1.11 4.94, 1.77 3.9, 5.09 0.31 M0.55 11.25 C3.78 7.95, 5.25 6.84, 12.16 -0.79 M-0.58 12.83 C3.26 8.34, 4.57 6.28, 10.34 0.44 M-0.84 18.27 C4.8 11.92, 9.31 4.49, 14.56 -0.02 M0.69 17.82 C5.56 11.75, 11.12 5.28, 16.5 1.27 M-1.3 22.13 C7.59 16.62, 10.66 12, 20 1.45 M-0.43 24.43 C6.69 18.14, 11.59 11.98, 22.03 0.82 M1.88 29.44 C7.05 19.85, 18.2 11.47, 27.65 -1.25 M-0.57 30.6 C6.35 20.92, 14.92 13.77, 26.02 0.22 M1.52 36.42 C12.46 23.43, 25.64 8.4, 31.86 -1.79 M-0.75 37.61 C12.73 21.02, 25.49 7.1, 31.86 -0.36 M-0.09 40.81 C10.84 28.57, 21.49 16.14, 36.51 -1.01 M-0.67 43.2 C10.66 28, 23.75 14.65, 36.83 0.03 M-2.01 47.98 C12.07 32.4, 23.48 21.19, 41.41 0.9 M0.3 49.33 C13.49 34.12, 26.12 19.04, 43.24 -0.33 M1.16 55.37 C15.13 38.47, 30.7 17.72, 48.29 2.2 M-0.44 53.57 C12.68 42.1, 23.89 28.36, 48.1 -0.22 M1.22 62.44 C17.14 40.79, 39.29 16.86, 51.17 -0.6 M0.95 60.71 C18.47 39.8, 37.85 17.92, 52.28 -0.88 M-1.88 67.12 C19.16 46.95, 37.75 24.34, 58.36 1.14 M-0.73 68.03 C15.91 48.76, 33.29 30.98, 58.15 -0.39 M1.21 71.95 C21.21 50.47, 38.39 26.36, 62.86 -0.1 M-0.81 73.23 C17.85 53.53, 34.45 33.62, 64.75 -1.14 M0.46 80.1 C22.5 50.76, 49.91 23.64, 68.32 1.89 M-0.79 79.22 C16.09 63.41, 30.36 45.34, 69.45 -0.18 M2.19 85.95 C23.71 61.03, 42.1 37.68, 75.44 -1.18 M1.17 84.49 C27.89 52.03, 55.34 21.55, 75.06 -0.65 M1.08 90.89 C26.28 57.39, 54.45 29.09, 79.97 1.77 M0.84 91.67 C23.54 65.01, 45.57 38.23, 79.58 -0.2 M-0.08 97.89 C25.31 68.31, 48.15 40.82, 83.08 0.91 M-0.49 97.94 C26.97 66.06, 53.47 35.39, 85.25 -0.35 M0.8 103.58 C29.16 71.05, 58.95 35.27, 89.34 -0.59 M-0.12 103.77 C27.66 72.05, 56.57 40.18, 90.29 1.05 M-1.62 108.28 C27.86 79.08, 52.12 52.63, 97.16 1.17 M-1.03 108.88 C30.54 73.34, 61.25 38.21, 96 0.44 M1.62 116.57 C28.21 83.58, 56.37 49.08, 100.68 0.71 M0.69 115.5 C33.24 75.75, 67.93 36.28, 100.46 0.16 M-0.22 123.13 C26.61 93.15, 49.6 63.55, 108.29 -1.11 M-0.55 122 C40.31 74.38, 81.86 27, 105.64 -0.99 M0.12 129.28 C45.19 76.13, 87.44 25.6, 112.46 0.84 M0.65 128.22 C24.3 102.25, 47.4 74.13, 111.11 -0.13 M1.21 133.01 C20.8 106.46, 45.55 79.35, 115.64 0.41 M-0.35 133.32 C28.11 101.03, 54.34 71.4, 116.48 1.02 M5.31 135.1 C29.28 108.67, 54.07 79.01, 123.37 -1.72 M4.96 134.59 C29.15 105.87, 53.63 77.77, 122.4 -0.01 M10.48 135.68 C57.03 83.27, 102.39 27.61, 127.57 2.06 M9.93 133.9 C55.76 81.35, 100.89 28.92, 126.44 0.45 M14.2 136.02 C57.8 84.42, 103.32 34.52, 134.29 0.77 M15.25 134.18 C60.73 82.07, 104.9 28.52, 132.63 0.47 M20.62 134.33 C50.05 102.37, 78.78 68.33, 135.68 0.73 M21.78 133.07 C57.04 93.91, 91.41 51.57, 138.11 1.18 M24.44 133.59 C73.55 80.61, 117.81 29.55, 142.37 -0.67 M27.23 133.47 C55.44 100.54, 84.32 66.16, 143.25 0.34 M31.38 135.36 C53.39 105.22, 78.33 79.82, 147.46 0.85 M32.33 133.18 C59.06 101.6, 87 70.2, 148.37 0.94 M38.12 135.6 C63.86 99.37, 91.66 66.75, 154.94 -1.73 M37.46 133.49 C69.63 97.42, 101.58 61.59, 153.84 0.77 M40.72 134.46 C80.37 90.52, 122.81 42.83, 159.61 1.1 M42.84 134.72 C80.06 89.85, 118.99 46.66, 158.76 1.06 M46.58 136.13 C90.55 85.89, 130.81 39.19, 163.55 1.17 M47.16 134.88 C91.94 83.1, 135.2 32.89, 165.12 0.02 M54.84 134.59 C91.04 87.9, 134.69 40.96, 168.04 0.47 M53.73 133.24 C96.22 83.05, 139.01 34.21, 168.45 -0.51 M56.36 133.52 C85.33 99.58, 116.63 64.22, 173.99 0.92 M59.18 134.91 C90.78 98.03, 123.07 60.81, 175.96 0.46 M62.13 131.99 C99.47 94.01, 133.75 55.15, 181.9 0.23 M63.55 134.44 C92.7 101.78, 122.07 67.93, 179.24 -0.23 M67.22 132.41 C98.43 99.53, 133.09 60.47, 184.26 1.66 M69.02 134.44 C102.31 92.05, 137.49 53.2, 186.36 -0.42 M75.22 134.2 C110.23 90.39, 150.73 45.72, 189.54 1.9 M74 133.11 C102.84 100.99, 132.53 66.95, 190.58 0.07 M78.15 133.72 C110.05 97.3, 142.37 63.34, 194.58 0.82 M79.83 134.94 C122.41 84.62, 166.73 33.02, 196.47 -1.04 M84.94 134.01 C121.58 87.38, 159.63 44.27, 200.54 1.32 M84.91 134.17 C132.56 79.95, 177.3 27.8, 200.58 0.16 M89.34 132.64 C126.08 91.06, 158.36 53.08, 205.36 -0.89 M89.37 133.5 C122.66 96.04, 156 57.24, 207.58 -0.68 M93.71 136.27 C125.79 98.08, 157.11 59.42, 211.69 -1.42 M94.59 134.37 C129.88 94.02, 163.9 55.33, 210.95 0.43 M100.22 132.67 C139.88 83.42, 185.35 36.9, 219.28 -1.47 M101.07 133.81 C143.09 87.55, 183.96 38.94, 217.1 -0.55 M104.11 132.84 C140.74 94.32, 172.9 56.21, 221 0.07 M105.47 134.33 C136.92 98.38, 169.39 60.48, 222.07 0.87 M111.42 135.54 C139.76 103.63, 165.89 68.68, 227.21 0.36 M111 133.18 C155.38 82.63, 201.5 30.31, 227.62 -0.71 M116.98 133.13 C158.13 88.83, 196.41 45.08, 233.71 0.47 M117.15 134.04 C149.69 96.34, 183.69 57.99, 233.95 0.07 M122.8 135.32 C151.34 97.97, 180.71 65.4, 237.57 -0.09 M122.83 133.52 C162.8 89.39, 201.15 45.35, 239.17 -0.39 M128.05 135.06 C148.98 103.12, 173.54 76.21, 244.27 0.71 M128.03 134.84 C173.04 83.54, 215.74 32.93, 243.25 0.24 M131.44 132.31 C169.66 92.71, 204.33 50.42, 248.99 1.5 M132.93 134.35 C158.35 103.04, 184.53 74.61, 248.93 0.05 M137.24 135.86 C175.64 93.64, 212.09 52.49, 254.35 -1.97 M137.64 135.19 C161.42 106.47, 184.15 77.9, 254.26 0.21 M141.63 135.13 C174.16 95.96, 206.29 59.83, 260.35 1.01 M143.27 133.81 C171.29 104.17, 196.91 73.91, 260.23 0.61 M146.71 134.01 C171.83 104.39, 198.61 75.69, 266.83 -0.07 M147.66 133.64 C187.9 86.98, 228.03 41.05, 265.92 0.4 M154.88 134.65 C197.24 86.68, 242.36 36.08, 271.39 0.84 M154.48 133.63 C200.87 81.49, 247.19 27.99, 270.19 -0.35 M158.83 135.29 C203.32 82.78, 245.6 33.89, 275.83 -1.79 M158.91 133.87 C205.09 84.03, 250.03 30.95, 274.8 -0.14 M163.93 134.05 C209.62 84.3, 251.16 34.02, 280.08 0.68 M164.81 134.17 C203.04 90.33, 241.46 45.35, 280.08 -0.37 M170.19 134.77 C195.96 105.64, 221.67 78.75, 284.66 -1.06 M170.34 133.66 C194.03 103.52, 219.02 75.88, 286.11 -0.78 M174.72 134.78 C207.43 96.54, 242.43 59.4, 291.94 0.24 M175.17 133.37 C206.9 94.42, 239.02 57.32, 291.67 0.89 M181.61 134.77 C225.28 85.36, 267.45 37.31, 289.97 7.26 M180.06 133.89 C218.23 89.87, 257.17 45.42, 290.82 6.54 M184.43 134.55 C225.43 89.25, 262.62 44.99, 290.2 14.33 M186.1 133.83 C216.83 99.78, 247.75 64.8, 290.32 13.68 M192.11 134.92 C224.37 93.34, 257.12 56.84, 292.17 19.06 M190.31 133.56 C230.77 89.07, 269.35 42.92, 291.06 19.92 M195.44 133.39 C230.5 95.27, 263.1 58.91, 289.32 23.16 M196.8 133.7 C218.4 109.28, 238.83 84.77, 291.56 25.48 M200.94 134.11 C233.34 96.24, 268.86 55.82, 292.16 32.47 M202.45 134.79 C235.26 94.89, 268.45 54.28, 289.9 32.06 M204.7 136.34 C227.18 110.61, 244.86 87.08, 292.13 35.53 M207.42 134.54 C235.55 99.65, 265.49 65.63, 291.23 37.18 M213.57 132.54 C239.79 100.17, 268.49 67.4, 289.48 43.43 M212.03 133.78 C233.25 111.44, 252.85 87.62, 290.44 42.79 M216.36 132.46 C238.97 111.95, 259.07 86.87, 289.06 48.29 M216.75 135.24 C243.33 103.7, 268.7 74.83, 289.64 49.56 M223.68 133.66 C239.16 113.52, 256.89 98.29, 291.55 55.42 M223.68 133.88 C245.84 105.85, 270.77 77.19, 290.11 55.8 M227.8 133.36 C242.67 115.38, 255.58 99.58, 290.68 61.3 M227.23 133.54 C246.65 110.64, 267.2 88.84, 291.22 61.24 M235.17 134.22 C247.95 113.54, 264.87 95.5, 291 66.2 M234.23 134.5 C253.86 110.5, 275.24 85.6, 290.96 68.4 M238.29 136.17 C252.28 120.69, 262.02 104.85, 289.83 71.96 M238.62 134.08 C257.08 112.67, 277.32 90.29, 291.57 74.2 M244.17 134.24 C255.61 120.49, 267.38 107.67, 291.04 78.57 M243.61 134.21 C258.3 115.91, 274.35 99.63, 290.05 81.26 M250.3 134.32 C258.61 123.6, 265.08 114.88, 290.24 86.21 M248.31 134.07 C264.83 116.49, 280.34 96.29, 291.09 85.78 M253.02 135.03 C264.86 120.61, 277.56 108.81, 290.05 91.35 M253.9 133.65 C263.12 123.29, 271.09 113.73, 291.02 92.38 M259.53 135.5 C267.7 126.64, 271.51 118.02, 291.84 97.26 M260.31 134.35 C271.3 121.73, 280.74 109.85, 291.3 98.43 M264.28 133.18 C275.54 122.58, 285.47 108.98, 291.67 105.88 M264.33 134.58 C272.98 125.27, 280.07 115.98, 291.2 104.66 M268.91 135.69 C277.26 126.52, 278.87 122.59, 292.12 112.35 M270.3 134.37 C276.7 125.95, 282.58 118.39, 291.24 111.48 M274.72 134.56 C278.34 129.07, 282.18 122.51, 289.42 117.06 M276.26 132.89 C281.2 127.11, 287.78 119.73, 291.21 115.84 M282.15 133.4 C285.83 130, 287.46 125.68, 290.75 123.54 M280.67 134.92 C283.24 130.26, 287.5 127.48, 290.95 123.02 M286.11 133.27 C288.29 132.47, 289.85 129.96, 291.43 128.35 M286.4 133.7 C287.56 132.71, 289.12 130.84, 291.18 128.41" stroke="#ced4da" stroke-width="0.5" fill="none"></path><path d="M-0.74 1.4 C112.78 -2.5, 225.69 -0.07, 290.84 1.36 M0.29 -0.73 C82.18 -1.49, 164.99 -1.05, 290.31 -0.08 M290.43 -1.93 C288.45 40.92, 291.99 82.05, 289.89 134.34 M290.85 -0.14 C289.61 30.27, 290.33 61.29, 290.29 134.2 M291.36 134.23 C231.6 133.21, 174.67 133.54, -1.24 132.58 M290.39 134.61 C182.66 136.75, 74.72 136.66, 0.63 133.4 M-1.56 135.66 C2.71 103.64, 2.49 71.58, 1.79 0.89 M-0.4 133.68 C-0.38 105.62, -1.39 76.9, -0.03 0.87" stroke="#000000" stroke-width="1" fill="none"></path></g><g transform="translate(961 184) rotate(0 140 12)"><text x="140" y="17" font-family="Virgil, Segoe UI Emoji" font-size="20px" fill="#000000" text-anchor="middle" style="white-space: pre;" direction="ltr">ESP8266</text></g><g transform="translate(15 173.5) rotate(0 110.5 12)"><text x="110.5" y="17" font-family="Virgil, Segoe UI Emoji" font-size="20px" fill="#000000" text-anchor="middle" style="white-space: pre;" direction="ltr">Android</text></g><g stroke-linecap="round"><g transform="translate(257.5682768231445 146.49898014272685) rotate(0 308.0084850844555 -1.1563208550223862)"><path d="M-0.23 -0.03 C102.94 -0.05, 514.64 -0.38, 617.83 -0.29 M-1.81 -1.1 C101.28 -1.47, 513.33 -2.26, 616.72 -2.28" stroke="#c92a2a" stroke-width="1" fill="none"></path></g><g transform="translate(257.5682768231445 146.49898014272685) rotate(0 308.0084850844555 -1.1563208550223862)"><path d="M588.49 7.51 C594.61 7.32, 601.64 3.72, 615.01 -3.08 M588.36 7.38 C597.19 5.43, 605.7 0.96, 617.4 -3.21" stroke="#c92a2a" stroke-width="1" fill="none"></path></g><g transform="translate(257.5682768231445 146.49898014272685) rotate(0 308.0084850844555 -1.1563208550223862)"><path d="M588.46 -13.01 C594.56 -9.09, 601.59 -8.59, 615.01 -3.08 M588.33 -13.14 C596.97 -9.01, 605.49 -7.39, 617.4 -3.21" stroke="#c92a2a" stroke-width="1" fill="none"></path></g></g><g stroke-linecap="round"><g transform="translate(940.9115914711808 259.11180786935677) rotate(0 -304.24313602992726 2.180000956865456)"><path d="M0.84 1.13 C-100.63 1.63, -506.86 2.01, -608.21 2.39 M-0.19 0.67 C-101.89 1.39, -508.06 3.57, -609.32 3.69" stroke="#5c940d" stroke-width="1" fill="none"></path></g><g transform="translate(940.9115914711808 259.11180786935677) rotate(0 -304.24313602992726 2.180000956865456)"><path d="M-579.29 -7.18 C-591.79 -1.83, -599.89 0.64, -611.06 2.27 M-581.98 -6.79 C-589.47 -3.25, -597.94 -0.94, -609.21 4.16" stroke="#5c940d" stroke-width="1" fill="none"></path></g><g transform="translate(940.9115914711808 259.11180786935677) rotate(0 -304.24313602992726 2.180000956865456)"><path d="M-579.21 13.34 C-591.64 11.54, -599.76 6.85, -611.06 2.27 M-581.91 13.73 C-589.31 10.91, -597.8 6.86, -609.21 4.16" stroke="#5c940d" stroke-width="1" fill="none"></path></g></g><g transform="translate(888 120) rotate(0 28.5 26)"><text x="0" y="18" font-family="Virgil, Segoe UI Emoji" font-size="20px" fill="#c92a2a" text-anchor="start" style="white-space: pre;" direction="ltr">UDP</text><text x="0" y="44" font-family="Virgil, Segoe UI Emoji" font-size="20px" fill="#c92a2a" text-anchor="start" style="white-space: pre;" direction="ltr">port 1</text></g><g transform="translate(255.5 231) rotate(0 33 26)"><text x="0" y="18" font-family="Virgil, Segoe UI Emoji" font-size="20px" fill="#5c940d" text-anchor="start" style="white-space: pre;" direction="ltr">UDP</text><text x="0" y="44" font-family="Virgil, Segoe UI Emoji" font-size="20px" fill="#5c940d" text-anchor="start" style="white-space: pre;" direction="ltr">port 2</text></g><g stroke-linecap="round" transform="translate(422 90) rotate(0 194.5 23.5)"><path d="M0.1 0.61 C149.45 1.27, 299.91 1.09, 389.26 0.26 M-0.54 0.12 C119.54 2.5, 238.4 2.3, 388.52 0.41 M390.15 1.76 C390.3 14.18, 390.02 27.58, 388.34 48.97 M388.6 -0.29 C388.84 11.83, 389.45 22.9, 388.22 47.95 M389.09 47.51 C272.63 45.96, 157.94 44.63, 0.88 46.08 M388.79 47.17 C301.31 47.44, 214.88 47.97, -0.39 46.55 M0.42 48.34 C-1.24 35.71, 0.89 23, 1.39 -0.66 M0.56 46.19 C-0.02 36.16, 0.62 27.04, -0.73 0.2" stroke="#000000" stroke-width="1" fill="none"></path></g><g transform="translate(427 100.5) rotate(0 189.5 13)"><text x="189.5" y="18" font-family="Virgil, Segoe UI Emoji" font-size="20px" fill="#000000" text-anchor="middle" style="white-space: pre;" direction="ltr">Left | Right | Backward | Forward</text></g><g stroke-linecap="round" transform="translate(397.3333965595384 200) rotate(0.20979409516935804 208 23)"><path d="M0.2 -0.4 C85.72 -1.69, 172.7 -1.28, 415.05 0.91 M-0.51 0.11 C111.66 -0.4, 222.7 -0.38, 415.88 -0.52 M414.55 -0.79 C416.34 11.51, 416.55 21.1, 417.94 46.7 M416.12 0.55 C416.56 9.38, 415.16 18.82, 415.11 46.44 M415.29 45.81 C301.13 46.14, 186.14 45.61, 0.65 46.19 M416.12 46.53 C265.13 45.38, 114.01 45.16, -0.53 45.76 M-0.84 44.9 C1.42 28.31, 2.01 8.91, 1.6 0.47 M0.26 45.94 C-0.3 34.52, -0.22 23.4, 0.46 -0.39" stroke="#000000" stroke-width="1" fill="none"></path></g><g transform="translate(402.3333965595384 211) rotate(0.20979409516935804 203 12)"><text x="203" y="17" font-family="Virgil, Segoe UI Emoji" font-size="20px" fill="#000000" text-anchor="middle" style="white-space: pre;" direction="ltr">Parking sensor | Voltage | RSSI</text></g></svg>